<svg xmlns="http://www.w3.org/2000/svg" width="14" height="14" viewBox="0 0 14 14">
  <g>
    <rect width="14" height="14" fill="#ed1e79" opacity="0"/>
    <g>
      <path d="M.954,5.758C.858,3.339,2.164,2.1,3.833,2.1A7.617,7.617,0,0,1,7.245,3.193,7.637,7.637,0,0,0,10.269,4.21c.871,0,1.282-.7,1.306-2.034a.727.727,0,1,1,1.452,0A3.656,3.656,0,0,1,11.98,5.269a2.723,2.723,0,0,1-1.735.562A8.182,8.182,0,0,1,6.736,4.765,7.416,7.416,0,0,0,3.833,3.7c-.871,0-1.4.605-1.452,2.057a.717.717,0,0,1-1.427,0Z"/>
      <path d="M.954,11.838c-.1-2.42,1.21-3.655,2.879-3.655a7.608,7.608,0,0,1,3.412,1.09,7.633,7.633,0,0,0,3.024,1.016c.871,0,1.282-.7,1.306-2.033a.731.731,0,1,1,1.452,0,3.654,3.654,0,0,1-1.047,3.092,2.717,2.717,0,0,1-1.735.562,8.178,8.178,0,0,1-3.509-1.065,7.4,7.4,0,0,0-2.9-1.064c-.871,0-1.4.6-1.452,2.057a.734.734,0,0,1-.665.75A.735.735,0,0,1,.954,11.838Z"/>
    </g>
  </g>
</svg>
