<svg xmlns="http://www.w3.org/2000/svg" width="14" height="14" viewBox="0 0 14 14">
  <g>
    <rect width="14" height="14" fill="#ed1e79" opacity="0"/>
    <path d="M13.81,6.855a.72.72,0,0,0-1.017-.042L10.629,8.807l-.227.209-.18-.251L8.907,6.924a.72.72,0,0,0-.585-.3H4.657l.025-.295A4.02,4.02,0,0,1,5.6,3.716,2.237,2.237,0,0,1,6.961,3.1a.72.72,0,0,0-.085-1.434.647.647,0,0,0-.087.006,3.663,3.663,0,0,0-2.2,1.022A5.4,5.4,0,0,0,3.237,6.37l-.018.253H.719a.72.72,0,0,0,0,1.439H3.182l0,.274c-.014,1.539-.028,3.13-.777,3.793a1.17,1.17,0,0,1-.812.281,2.221,2.221,0,0,1-.352-.03.743.743,0,0,0-.115-.009A.719.719,0,0,0,1.01,13.8a3.612,3.612,0,0,0,.577.048,2.608,2.608,0,0,0,1.769-.642c1.23-1.087,1.246-3.012,1.262-4.874l0-.27H7.952l.081.114L9.2,9.8,9.335,10l-.177.163L6.513,12.6a.719.719,0,1,0,.974,1.058l2.464-2.269.227-.209.179.251,1.512,2.116a.719.719,0,1,0,1.171-.836l-1.656-2.317-.14-.2.177-.163,2.347-2.162a.72.72,0,0,0,.042-1.016Z"/>
  </g>
</svg>
