<svg xmlns="http://www.w3.org/2000/svg" width="62" height="73" viewBox="0 0 62 73">
  <g>
    <path d="M37.807,73H7.066A7.074,7.074,0,0,1,0,65.934V24.421a7.074,7.074,0,0,1,7.066-7.067H37.807a7.074,7.074,0,0,1,7.066,7.067V65.934A7.074,7.074,0,0,1,37.807,73ZM7.066,23.354A1.068,1.068,0,0,0,6,24.421V65.934A1.068,1.068,0,0,0,7.066,67H37.807a1.068,1.068,0,0,0,1.066-1.066V24.421a1.068,1.068,0,0,0-1.066-1.067Z"/>
    <path d="M54.934,55.646H52.821a3,3,0,0,1,0-6h2.113A1.068,1.068,0,0,0,56,48.579V7.066A1.068,1.068,0,0,0,54.934,6H24.192a1.058,1.058,0,0,0-.752.312,1.159,1.159,0,0,0-.314.754V9.485a3,3,0,0,1-6,0V7.066a7.146,7.146,0,0,1,2.07-5,7.012,7.012,0,0,1,5-2.07H54.934A7.074,7.074,0,0,1,62,7.066V48.579A7.074,7.074,0,0,1,54.934,55.646Z"/>
  </g>
</svg>
